<?xml version="1.0" encoding="UTF-8"?>
<!-- Created by Vectric (http://www.vectric.com/) -->
<svg width="10.84250000in" height="7.53543000in" viewBox="0 0 10.84250000 7.53543000" id="svg2" version="1.1" xmlns="http://www.w3.org/2000/svg" xmlns:xlink="http://www.w3.org/1999/xlink" xmlns:inkscape="http://www.inkscape.org/namespaces/inkscape">
    <g inkscape:groupmode="layer" id="85667243-1302-4a85-b3ac-c7bf39b332ec" inkscape:label="Toolpath Previews"/>
    <g inkscape:groupmode="layer" id="fa585c1f-4376-416d-84ca-d242fafb457f" inkscape:label="Back_back">
        <path style="fill:none;stroke-width:0.010000;stroke-linecap:round;stroke-linejoin:round;stroke-opacity:1;stroke:#000000;" d="M 10.199000,0.504400 L 0.643500,0.504400 A 0.139100,0.139100 0 0,0 0.504400,0.643500 L 0.504400,6.891930 A 0.139100,0.139100 0 0,0 0.643500,7.031030 L 10.199000,7.031030 A 0.139100,0.139100 0 0,0 10.338100,6.891930 L 10.338100,0.643500 A 0.139100,0.139100 0 0,0 10.199000,0.504400 "/>
        <path style="fill:none;stroke-width:0.010000;stroke-linecap:round;stroke-linejoin:round;stroke-opacity:1;stroke:#000000;" d="M 10.842500,6.891930 L 10.842500,0.643500 A 0.643500,0.643500 0 0,0 10.199000,0.000000 L 0.643500,0.000000 A 0.643500,0.643500 0 0,0 0.000000,0.643500 L 0.000000,6.891930 A 0.643500,0.643500 0 0,0 0.643500,7.535430 L 10.199000,7.535430 A 0.643500,0.643500 0 0,0 10.842500,6.891930 "/>
        <path style="fill:none;stroke-width:0.010000;stroke-linecap:round;stroke-linejoin:round;stroke-opacity:1;stroke:#000000;" d="M 0.734400,6.893547 L 10.108100,6.893547 L 10.108100,0.641883 L 0.734400,0.641883 L 0.734400,6.893547 "/>
        <path style="fill:none;stroke-width:0.010000;stroke-linecap:round;stroke-linejoin:round;stroke-opacity:1;stroke:#000000;" d="M 0.984400,6.643547 L 9.858100,6.643547 L 9.858100,0.891883 L 0.984400,0.891883 L 0.984400,6.643547 "/>
    </g>
</svg>
